<mxfile host="65bd71144e">
    <diagram id="oa0MW-KlKo4J3MIbtXeA" name="Page-1">
        <mxGraphModel dx="1374" dy="790" grid="1" gridSize="10" guides="1" tooltips="1" connect="1" arrows="1" fold="1" page="1" pageScale="1" pageWidth="850" pageHeight="1100" math="0" shadow="0">
            <root>
                <mxCell id="0"/>
                <mxCell id="1" parent="0"/>
                <mxCell id="xwoSYG_yZG3x_fjva2nK-13" style="edgeStyle=orthogonalEdgeStyle;rounded=0;sketch=0;orthogonalLoop=1;jettySize=auto;html=1;exitX=0.5;exitY=0;exitDx=0;exitDy=0;entryX=0.5;entryY=1;entryDx=0;entryDy=0;fontColor=#5C5C5C;strokeColor=#006658;fillColor=#21C0A5;strokeWidth=4;endArrow=none;endFill=0;jumpSize=2;" edge="1" parent="1" source="xwoSYG_yZG3x_fjva2nK-6" target="xwoSYG_yZG3x_fjva2nK-8">
                    <mxGeometry relative="1" as="geometry"/>
                </mxCell>
                <mxCell id="xwoSYG_yZG3x_fjva2nK-14" style="edgeStyle=orthogonalEdgeStyle;rounded=0;sketch=0;orthogonalLoop=1;jettySize=auto;html=1;exitX=1;exitY=0.5;exitDx=0;exitDy=0;entryX=0.5;entryY=1;entryDx=0;entryDy=0;fontColor=#5C5C5C;strokeColor=#006658;strokeWidth=4;fillColor=#21C0A5;endArrow=none;endFill=0;jumpSize=2;" edge="1" parent="1" source="xwoSYG_yZG3x_fjva2nK-6" target="xwoSYG_yZG3x_fjva2nK-9">
                    <mxGeometry relative="1" as="geometry">
                        <Array as="points">
                            <mxPoint x="470" y="270"/>
                            <mxPoint x="620" y="270"/>
                        </Array>
                    </mxGeometry>
                </mxCell>
                <mxCell id="xwoSYG_yZG3x_fjva2nK-15" style="edgeStyle=orthogonalEdgeStyle;rounded=0;sketch=0;orthogonalLoop=1;jettySize=auto;html=1;exitX=0;exitY=0.25;exitDx=0;exitDy=0;entryX=0.5;entryY=1;entryDx=0;entryDy=0;fontColor=#5C5C5C;strokeColor=#006658;strokeWidth=4;fillColor=#21C0A5;endArrow=none;endFill=0;jumpSize=2;" edge="1" parent="1" source="xwoSYG_yZG3x_fjva2nK-6" target="xwoSYG_yZG3x_fjva2nK-7">
                    <mxGeometry relative="1" as="geometry"/>
                </mxCell>
                <mxCell id="xwoSYG_yZG3x_fjva2nK-16" style="edgeStyle=orthogonalEdgeStyle;rounded=0;sketch=0;orthogonalLoop=1;jettySize=auto;html=1;exitX=0;exitY=0.75;exitDx=0;exitDy=0;entryX=0.5;entryY=0;entryDx=0;entryDy=0;fontColor=#5C5C5C;strokeColor=#006658;strokeWidth=4;fillColor=#21C0A5;endArrow=none;endFill=0;jumpSize=2;" edge="1" parent="1" source="xwoSYG_yZG3x_fjva2nK-6" target="xwoSYG_yZG3x_fjva2nK-10">
                    <mxGeometry relative="1" as="geometry"/>
                </mxCell>
                <mxCell id="xwoSYG_yZG3x_fjva2nK-17" style="edgeStyle=orthogonalEdgeStyle;rounded=0;sketch=0;orthogonalLoop=1;jettySize=auto;html=1;exitX=0.5;exitY=1;exitDx=0;exitDy=0;fontColor=#5C5C5C;strokeColor=#006658;strokeWidth=4;fillColor=#21C0A5;endArrow=none;endFill=0;jumpSize=2;" edge="1" parent="1" source="xwoSYG_yZG3x_fjva2nK-6" target="xwoSYG_yZG3x_fjva2nK-11">
                    <mxGeometry relative="1" as="geometry"/>
                </mxCell>
                <mxCell id="xwoSYG_yZG3x_fjva2nK-18" style="edgeStyle=orthogonalEdgeStyle;rounded=0;sketch=0;orthogonalLoop=1;jettySize=auto;html=1;exitX=1;exitY=0.75;exitDx=0;exitDy=0;entryX=0.5;entryY=0;entryDx=0;entryDy=0;fontColor=#5C5C5C;strokeColor=#006658;strokeWidth=4;fillColor=#21C0A5;endArrow=none;endFill=0;jumpSize=2;" edge="1" parent="1" source="xwoSYG_yZG3x_fjva2nK-6" target="xwoSYG_yZG3x_fjva2nK-12">
                    <mxGeometry relative="1" as="geometry"/>
                </mxCell>
                <mxCell id="xwoSYG_yZG3x_fjva2nK-6" value="Course&lt;br&gt;" style="rounded=0;whiteSpace=wrap;html=1;sketch=0;fontColor=#5C5C5C;strokeColor=#006658;fillColor=#21C0A5;" vertex="1" parent="1">
                    <mxGeometry x="350" y="260" width="120" height="60" as="geometry"/>
                </mxCell>
                <mxCell id="xwoSYG_yZG3x_fjva2nK-7" value="department name" style="ellipse;whiteSpace=wrap;html=1;rounded=0;sketch=0;fontColor=#5C5C5C;strokeColor=#006658;fillColor=#21C0A5;" vertex="1" parent="1">
                    <mxGeometry x="160" y="110" width="120" height="80" as="geometry"/>
                </mxCell>
                <mxCell id="xwoSYG_yZG3x_fjva2nK-8" value="course number" style="ellipse;whiteSpace=wrap;html=1;rounded=0;sketch=0;fontColor=#5C5C5C;strokeColor=#006658;fillColor=#21C0A5;" vertex="1" parent="1">
                    <mxGeometry x="350" y="120" width="120" height="80" as="geometry"/>
                </mxCell>
                <mxCell id="xwoSYG_yZG3x_fjva2nK-9" value="start date" style="ellipse;whiteSpace=wrap;html=1;rounded=0;sketch=0;fontColor=#5C5C5C;strokeColor=#006658;fillColor=#21C0A5;" vertex="1" parent="1">
                    <mxGeometry x="560" y="110" width="120" height="80" as="geometry"/>
                </mxCell>
                <mxCell id="xwoSYG_yZG3x_fjva2nK-10" value="enrollment" style="ellipse;whiteSpace=wrap;html=1;rounded=0;sketch=0;fontColor=#5C5C5C;strokeColor=#006658;fillColor=#21C0A5;" vertex="1" parent="1">
                    <mxGeometry x="160" y="360" width="120" height="80" as="geometry"/>
                </mxCell>
                <mxCell id="xwoSYG_yZG3x_fjva2nK-11" value="instructor" style="ellipse;whiteSpace=wrap;html=1;rounded=0;sketch=0;fontColor=#5C5C5C;strokeColor=#006658;fillColor=#21C0A5;" vertex="1" parent="1">
                    <mxGeometry x="350" y="360" width="120" height="80" as="geometry"/>
                </mxCell>
                <mxCell id="xwoSYG_yZG3x_fjva2nK-12" value="number of students&lt;br&gt;" style="ellipse;whiteSpace=wrap;html=1;rounded=0;sketch=0;fontColor=#5C5C5C;strokeColor=#006658;fillColor=#21C0A5;" vertex="1" parent="1">
                    <mxGeometry x="570" y="350" width="120" height="80" as="geometry"/>
                </mxCell>
            </root>
        </mxGraphModel>
    </diagram>
</mxfile>